<?xml version="1.0" encoding="UTF-8"?>
<svg xmlns="http://www.w3.org/2000/svg" width="512" height="376" viewBox="0 0 512 376"><rect x="0.00" y="0.00" width="512.00" height="376.00" fill="#FFFFFF" stroke="none" stroke-width="1" rx="0"/><text x="0.00" y="18.00" font-family="-apple-system, 'Helvetica Neue', Helvetica, Arial, 'Liberation Sans', sans-serif" font-size="11" fill="#1B2129" font-weight="600" text-anchor="start">Рис. 1. Диаграммы надёжности: усреднение стягивает вероятности к середине</text><text x="0.00" y="31.00" font-family="-apple-system, 'Helvetica Neue', Helvetica, Arial, 'Liberation Sans', sans-serif" font-size="10" fill="#6E7883" font-weight="400" text-anchor="start">Fig. 1. Reliability diagrams: averaging pulls probabilities toward the middle</text><text x="0.00" y="58.00" font-family="-apple-system, 'Helvetica Neue', Helvetica, Arial, 'Liberation Sans', sans-serif" font-size="9" fill="#6E7883" font-weight="400" text-anchor="start">Глубокие модели, первое разбиение, пятнадцать групп равного размера</text><text x="0.00" y="69.00" font-family="-apple-system, 'Helvetica Neue', Helvetica, Arial, 'Liberation Sans', sans-serif" font-size="8" fill="#6E7883" font-weight="400" text-anchor="start">Deep models, first split, fifteen equal-mass bins</text><text x="30.00" y="101.00" font-family="-apple-system, 'Helvetica Neue', Helvetica, Arial, 'Liberation Sans', sans-serif" font-size="9" fill="#1B2129" font-weight="600" text-anchor="start">ASSISTments-2017</text><rect x="30.00" y="110.00" width="147.33" height="150.00" fill="#F4F6F8" stroke="none" stroke-width="1" rx="0"/><line x1="30.00" y1="260.00" x2="177.33" y2="110.00" stroke="#C9D0D8" stroke-width="1" stroke-dasharray="3 3"/><polyline points="36.24,252.28 43.54,244.08 50.28,237.51 56.91,231.41 63.55,224.94 70.10,219.46 76.57,212.84 82.93,207.14 89.22,201.03 95.67,195.61 102.55,190.03 110.54,181.54 120.71,172.65 135.15,158.73 157.35,134.53" fill="none" stroke="#6E7883" stroke-width="1.6" stroke-linejoin="round"/><circle cx="36.24" cy="252.28" r="2.0" fill="#6E7883" stroke="#FFFFFF" stroke-width="1.2"/><circle cx="43.54" cy="244.08" r="2.0" fill="#6E7883" stroke="#FFFFFF" stroke-width="1.2"/><circle cx="50.28" cy="237.51" r="2.0" fill="#6E7883" stroke="#FFFFFF" stroke-width="1.2"/><circle cx="56.91" cy="231.41" r="2.0" fill="#6E7883" stroke="#FFFFFF" stroke-width="1.2"/><circle cx="63.55" cy="224.94" r="2.0" fill="#6E7883" stroke="#FFFFFF" stroke-width="1.2"/><circle cx="70.10" cy="219.46" r="2.0" fill="#6E7883" stroke="#FFFFFF" stroke-width="1.2"/><circle cx="76.57" cy="212.84" r="2.0" fill="#6E7883" stroke="#FFFFFF" stroke-width="1.2"/><circle cx="82.93" cy="207.14" r="2.0" fill="#6E7883" stroke="#FFFFFF" stroke-width="1.2"/><circle cx="89.22" cy="201.03" r="2.0" fill="#6E7883" stroke="#FFFFFF" stroke-width="1.2"/><circle cx="95.67" cy="195.61" r="2.0" fill="#6E7883" stroke="#FFFFFF" stroke-width="1.2"/><circle cx="102.55" cy="190.03" r="2.0" fill="#6E7883" stroke="#FFFFFF" stroke-width="1.2"/><circle cx="110.54" cy="181.54" r="2.0" fill="#6E7883" stroke="#FFFFFF" stroke-width="1.2"/><circle cx="120.71" cy="172.65" r="2.0" fill="#6E7883" stroke="#FFFFFF" stroke-width="1.2"/><circle cx="135.15" cy="158.73" r="2.0" fill="#6E7883" stroke="#FFFFFF" stroke-width="1.2"/><circle cx="157.35" cy="134.53" r="2.0" fill="#6E7883" stroke="#FFFFFF" stroke-width="1.2"/><polyline points="46.59,251.29 54.64,244.81 60.39,238.07 65.42,233.03 70.00,226.31 74.38,220.85 78.71,214.18 83.06,207.57 87.45,200.19 92.02,194.41 97.07,188.46 103.11,181.46 111.35,171.96 123.63,157.24 144.90,133.95" fill="none" stroke="#A8403A" stroke-width="1.6" stroke-linejoin="round"/><circle cx="46.59" cy="251.29" r="2.0" fill="#A8403A" stroke="#FFFFFF" stroke-width="1.2"/><circle cx="54.64" cy="244.81" r="2.0" fill="#A8403A" stroke="#FFFFFF" stroke-width="1.2"/><circle cx="60.39" cy="238.07" r="2.0" fill="#A8403A" stroke="#FFFFFF" stroke-width="1.2"/><circle cx="65.42" cy="233.03" r="2.0" fill="#A8403A" stroke="#FFFFFF" stroke-width="1.2"/><circle cx="70.00" cy="226.31" r="2.0" fill="#A8403A" stroke="#FFFFFF" stroke-width="1.2"/><circle cx="74.38" cy="220.85" r="2.0" fill="#A8403A" stroke="#FFFFFF" stroke-width="1.2"/><circle cx="78.71" cy="214.18" r="2.0" fill="#A8403A" stroke="#FFFFFF" stroke-width="1.2"/><circle cx="83.06" cy="207.57" r="2.0" fill="#A8403A" stroke="#FFFFFF" stroke-width="1.2"/><circle cx="87.45" cy="200.19" r="2.0" fill="#A8403A" stroke="#FFFFFF" stroke-width="1.2"/><circle cx="92.02" cy="194.41" r="2.0" fill="#A8403A" stroke="#FFFFFF" stroke-width="1.2"/><circle cx="97.07" cy="188.46" r="2.0" fill="#A8403A" stroke="#FFFFFF" stroke-width="1.2"/><circle cx="103.11" cy="181.46" r="2.0" fill="#A8403A" stroke="#FFFFFF" stroke-width="1.2"/><circle cx="111.35" cy="171.96" r="2.0" fill="#A8403A" stroke="#FFFFFF" stroke-width="1.2"/><circle cx="123.63" cy="157.24" r="2.0" fill="#A8403A" stroke="#FFFFFF" stroke-width="1.2"/><circle cx="144.90" cy="133.95" r="2.0" fill="#A8403A" stroke="#FFFFFF" stroke-width="1.2"/><line x1="30.00" y1="260.00" x2="30.00" y2="264.00" stroke="#C9D0D8" stroke-width="1"/><text x="30.00" y="273.00" font-family="-apple-system, 'Helvetica Neue', Helvetica, Arial, 'Liberation Sans', sans-serif" font-size="7" fill="#6E7883" font-weight="400" text-anchor="middle">0</text><line x1="103.67" y1="260.00" x2="103.67" y2="264.00" stroke="#C9D0D8" stroke-width="1"/><text x="103.67" y="273.00" font-family="-apple-system, 'Helvetica Neue', Helvetica, Arial, 'Liberation Sans', sans-serif" font-size="7" fill="#6E7883" font-weight="400" text-anchor="middle">0.5</text><line x1="177.33" y1="260.00" x2="177.33" y2="264.00" stroke="#C9D0D8" stroke-width="1"/><text x="177.33" y="273.00" font-family="-apple-system, 'Helvetica Neue', Helvetica, Arial, 'Liberation Sans', sans-serif" font-size="7" fill="#6E7883" font-weight="400" text-anchor="middle">1</text><text x="30.00" y="287.00" font-family="-apple-system, 'Helvetica Neue', Helvetica, Arial, 'Liberation Sans', sans-serif" font-size="8" fill="#1B2129" font-weight="400" text-anchor="start">ошибка калибровки +0.0226</text><text x="30.00" y="297.00" font-family="-apple-system, 'Helvetica Neue', Helvetica, Arial, 'Liberation Sans', sans-serif" font-size="7" fill="#6E7883" font-weight="400" text-anchor="start">calibration error +0.0226</text><text x="30.00" y="310.00" font-family="-apple-system, 'Helvetica Neue', Helvetica, Arial, 'Liberation Sans', sans-serif" font-size="8" fill="#1B2129" font-weight="400" text-anchor="start">разброс 0.2296 → 0.1735</text><text x="30.00" y="320.00" font-family="-apple-system, 'Helvetica Neue', Helvetica, Arial, 'Liberation Sans', sans-serif" font-size="7" fill="#6E7883" font-weight="400" text-anchor="start">spread 0.2296 → 0.1735</text><text x="193.33" y="101.00" font-family="-apple-system, 'Helvetica Neue', Helvetica, Arial, 'Liberation Sans', sans-serif" font-size="9" fill="#1B2129" font-weight="600" text-anchor="start">Bridge-to-Algebra-2006</text><rect x="193.33" y="110.00" width="147.33" height="150.00" fill="#F4F6F8" stroke="none" stroke-width="1" rx="0"/><line x1="193.33" y1="260.00" x2="340.67" y2="110.00" stroke="#C9D0D8" stroke-width="1" stroke-dasharray="3 3"/><polyline points="247.71,201.68 275.98,175.41 292.49,157.05 304.20,144.71 312.59,135.86 318.55,130.73 322.95,126.38 326.35,123.84 329.03,120.77 331.21,119.21 333.04,117.67 334.63,116.67 336.09,115.41 337.52,114.31 339.15,112.49" fill="none" stroke="#6E7883" stroke-width="1.6" stroke-linejoin="round"/><circle cx="247.71" cy="201.68" r="2.0" fill="#6E7883" stroke="#FFFFFF" stroke-width="1.2"/><circle cx="275.98" cy="175.41" r="2.0" fill="#6E7883" stroke="#FFFFFF" stroke-width="1.2"/><circle cx="292.49" cy="157.05" r="2.0" fill="#6E7883" stroke="#FFFFFF" stroke-width="1.2"/><circle cx="304.20" cy="144.71" r="2.0" fill="#6E7883" stroke="#FFFFFF" stroke-width="1.2"/><circle cx="312.59" cy="135.86" r="2.0" fill="#6E7883" stroke="#FFFFFF" stroke-width="1.2"/><circle cx="318.55" cy="130.73" r="2.0" fill="#6E7883" stroke="#FFFFFF" stroke-width="1.2"/><circle cx="322.95" cy="126.38" r="2.0" fill="#6E7883" stroke="#FFFFFF" stroke-width="1.2"/><circle cx="326.35" cy="123.84" r="2.0" fill="#6E7883" stroke="#FFFFFF" stroke-width="1.2"/><circle cx="329.03" cy="120.77" r="2.0" fill="#6E7883" stroke="#FFFFFF" stroke-width="1.2"/><circle cx="331.21" cy="119.21" r="2.0" fill="#6E7883" stroke="#FFFFFF" stroke-width="1.2"/><circle cx="333.04" cy="117.67" r="2.0" fill="#6E7883" stroke="#FFFFFF" stroke-width="1.2"/><circle cx="334.63" cy="116.67" r="2.0" fill="#6E7883" stroke="#FFFFFF" stroke-width="1.2"/><circle cx="336.09" cy="115.41" r="2.0" fill="#6E7883" stroke="#FFFFFF" stroke-width="1.2"/><circle cx="337.52" cy="114.31" r="2.0" fill="#6E7883" stroke="#FFFFFF" stroke-width="1.2"/><circle cx="339.15" cy="112.49" r="2.0" fill="#6E7883" stroke="#FFFFFF" stroke-width="1.2"/><polyline points="254.59,203.21 281.37,176.11 296.20,157.50 306.82,145.32 314.19,136.56 319.42,130.46 323.27,125.80 326.24,122.75 328.59,120.80 330.50,118.96 332.10,117.43 333.54,115.89 334.86,114.88 336.12,113.96 337.57,112.53" fill="none" stroke="#A8403A" stroke-width="1.6" stroke-linejoin="round"/><circle cx="254.59" cy="203.21" r="2.0" fill="#A8403A" stroke="#FFFFFF" stroke-width="1.2"/><circle cx="281.37" cy="176.11" r="2.0" fill="#A8403A" stroke="#FFFFFF" stroke-width="1.2"/><circle cx="296.20" cy="157.50" r="2.0" fill="#A8403A" stroke="#FFFFFF" stroke-width="1.2"/><circle cx="306.82" cy="145.32" r="2.0" fill="#A8403A" stroke="#FFFFFF" stroke-width="1.2"/><circle cx="314.19" cy="136.56" r="2.0" fill="#A8403A" stroke="#FFFFFF" stroke-width="1.2"/><circle cx="319.42" cy="130.46" r="2.0" fill="#A8403A" stroke="#FFFFFF" stroke-width="1.2"/><circle cx="323.27" cy="125.80" r="2.0" fill="#A8403A" stroke="#FFFFFF" stroke-width="1.2"/><circle cx="326.24" cy="122.75" r="2.0" fill="#A8403A" stroke="#FFFFFF" stroke-width="1.2"/><circle cx="328.59" cy="120.80" r="2.0" fill="#A8403A" stroke="#FFFFFF" stroke-width="1.2"/><circle cx="330.50" cy="118.96" r="2.0" fill="#A8403A" stroke="#FFFFFF" stroke-width="1.2"/><circle cx="332.10" cy="117.43" r="2.0" fill="#A8403A" stroke="#FFFFFF" stroke-width="1.2"/><circle cx="333.54" cy="115.89" r="2.0" fill="#A8403A" stroke="#FFFFFF" stroke-width="1.2"/><circle cx="334.86" cy="114.88" r="2.0" fill="#A8403A" stroke="#FFFFFF" stroke-width="1.2"/><circle cx="336.12" cy="113.96" r="2.0" fill="#A8403A" stroke="#FFFFFF" stroke-width="1.2"/><circle cx="337.57" cy="112.53" r="2.0" fill="#A8403A" stroke="#FFFFFF" stroke-width="1.2"/><line x1="193.33" y1="260.00" x2="193.33" y2="264.00" stroke="#C9D0D8" stroke-width="1"/><text x="193.33" y="273.00" font-family="-apple-system, 'Helvetica Neue', Helvetica, Arial, 'Liberation Sans', sans-serif" font-size="7" fill="#6E7883" font-weight="400" text-anchor="middle">0</text><line x1="267.00" y1="260.00" x2="267.00" y2="264.00" stroke="#C9D0D8" stroke-width="1"/><text x="267.00" y="273.00" font-family="-apple-system, 'Helvetica Neue', Helvetica, Arial, 'Liberation Sans', sans-serif" font-size="7" fill="#6E7883" font-weight="400" text-anchor="middle">0.5</text><line x1="340.67" y1="260.00" x2="340.67" y2="264.00" stroke="#C9D0D8" stroke-width="1"/><text x="340.67" y="273.00" font-family="-apple-system, 'Helvetica Neue', Helvetica, Arial, 'Liberation Sans', sans-serif" font-size="7" fill="#6E7883" font-weight="400" text-anchor="middle">1</text><text x="193.33" y="287.00" font-family="-apple-system, 'Helvetica Neue', Helvetica, Arial, 'Liberation Sans', sans-serif" font-size="8" fill="#1B2129" font-weight="400" text-anchor="start">ошибка калибровки +0.0064</text><text x="193.33" y="297.00" font-family="-apple-system, 'Helvetica Neue', Helvetica, Arial, 'Liberation Sans', sans-serif" font-size="7" fill="#6E7883" font-weight="400" text-anchor="start">calibration error +0.0064</text><text x="193.33" y="310.00" font-family="-apple-system, 'Helvetica Neue', Helvetica, Arial, 'Liberation Sans', sans-serif" font-size="8" fill="#1B2129" font-weight="400" text-anchor="start">разброс 0.1742 → 0.1560</text><text x="193.33" y="320.00" font-family="-apple-system, 'Helvetica Neue', Helvetica, Arial, 'Liberation Sans', sans-serif" font-size="7" fill="#6E7883" font-weight="400" text-anchor="start">spread 0.1742 → 0.1560</text><text x="356.67" y="101.00" font-family="-apple-system, 'Helvetica Neue', Helvetica, Arial, 'Liberation Sans', sans-serif" font-size="9" fill="#1B2129" font-weight="600" text-anchor="start">EdNet-KT1-5k</text><rect x="356.67" y="110.00" width="147.33" height="150.00" fill="#F4F6F8" stroke="none" stroke-width="1" rx="0"/><line x1="356.67" y1="260.00" x2="504.00" y2="110.00" stroke="#C9D0D8" stroke-width="1" stroke-dasharray="3 3"/><polyline points="377.63,189.94 392.18,179.74 404.77,181.05 418.22,183.33 431.97,176.34 444.98,166.99 457.14,163.69 468.29,161.34 478.25,158.47 486.26,157.77 491.62,153.52 495.33,145.52 498.38,137.42 501.09,132.70 503.35,125.74" fill="none" stroke="#6E7883" stroke-width="1.6" stroke-linejoin="round"/><circle cx="377.63" cy="189.94" r="2.0" fill="#6E7883" stroke="#FFFFFF" stroke-width="1.2"/><circle cx="392.18" cy="179.74" r="2.0" fill="#6E7883" stroke="#FFFFFF" stroke-width="1.2"/><circle cx="404.77" cy="181.05" r="2.0" fill="#6E7883" stroke="#FFFFFF" stroke-width="1.2"/><circle cx="418.22" cy="183.33" r="2.0" fill="#6E7883" stroke="#FFFFFF" stroke-width="1.2"/><circle cx="431.97" cy="176.34" r="2.0" fill="#6E7883" stroke="#FFFFFF" stroke-width="1.2"/><circle cx="444.98" cy="166.99" r="2.0" fill="#6E7883" stroke="#FFFFFF" stroke-width="1.2"/><circle cx="457.14" cy="163.69" r="2.0" fill="#6E7883" stroke="#FFFFFF" stroke-width="1.2"/><circle cx="468.29" cy="161.34" r="2.0" fill="#6E7883" stroke="#FFFFFF" stroke-width="1.2"/><circle cx="478.25" cy="158.47" r="2.0" fill="#6E7883" stroke="#FFFFFF" stroke-width="1.2"/><circle cx="486.26" cy="157.77" r="2.0" fill="#6E7883" stroke="#FFFFFF" stroke-width="1.2"/><circle cx="491.62" cy="153.52" r="2.0" fill="#6E7883" stroke="#FFFFFF" stroke-width="1.2"/><circle cx="495.33" cy="145.52" r="2.0" fill="#6E7883" stroke="#FFFFFF" stroke-width="1.2"/><circle cx="498.38" cy="137.42" r="2.0" fill="#6E7883" stroke="#FFFFFF" stroke-width="1.2"/><circle cx="501.09" cy="132.70" r="2.0" fill="#6E7883" stroke="#FFFFFF" stroke-width="1.2"/><circle cx="503.35" cy="125.74" r="2.0" fill="#6E7883" stroke="#FFFFFF" stroke-width="1.2"/><polyline points="389.63,182.34 408.97,171.30 423.48,186.77 433.68,185.53 440.99,176.24 447.07,169.46 452.72,162.55 458.27,155.97 464.07,151.05 470.73,148.29 479.27,149.67 486.32,154.74 489.93,147.75 492.57,140.57 495.82,131.36" fill="none" stroke="#A8403A" stroke-width="1.6" stroke-linejoin="round"/><circle cx="389.63" cy="182.34" r="2.0" fill="#A8403A" stroke="#FFFFFF" stroke-width="1.2"/><circle cx="408.97" cy="171.30" r="2.0" fill="#A8403A" stroke="#FFFFFF" stroke-width="1.2"/><circle cx="423.48" cy="186.77" r="2.0" fill="#A8403A" stroke="#FFFFFF" stroke-width="1.2"/><circle cx="433.68" cy="185.53" r="2.0" fill="#A8403A" stroke="#FFFFFF" stroke-width="1.2"/><circle cx="440.99" cy="176.24" r="2.0" fill="#A8403A" stroke="#FFFFFF" stroke-width="1.2"/><circle cx="447.07" cy="169.46" r="2.0" fill="#A8403A" stroke="#FFFFFF" stroke-width="1.2"/><circle cx="452.72" cy="162.55" r="2.0" fill="#A8403A" stroke="#FFFFFF" stroke-width="1.2"/><circle cx="458.27" cy="155.97" r="2.0" fill="#A8403A" stroke="#FFFFFF" stroke-width="1.2"/><circle cx="464.07" cy="151.05" r="2.0" fill="#A8403A" stroke="#FFFFFF" stroke-width="1.2"/><circle cx="470.73" cy="148.29" r="2.0" fill="#A8403A" stroke="#FFFFFF" stroke-width="1.2"/><circle cx="479.27" cy="149.67" r="2.0" fill="#A8403A" stroke="#FFFFFF" stroke-width="1.2"/><circle cx="486.32" cy="154.74" r="2.0" fill="#A8403A" stroke="#FFFFFF" stroke-width="1.2"/><circle cx="489.93" cy="147.75" r="2.0" fill="#A8403A" stroke="#FFFFFF" stroke-width="1.2"/><circle cx="492.57" cy="140.57" r="2.0" fill="#A8403A" stroke="#FFFFFF" stroke-width="1.2"/><circle cx="495.82" cy="131.36" r="2.0" fill="#A8403A" stroke="#FFFFFF" stroke-width="1.2"/><line x1="356.67" y1="260.00" x2="356.67" y2="264.00" stroke="#C9D0D8" stroke-width="1"/><text x="356.67" y="273.00" font-family="-apple-system, 'Helvetica Neue', Helvetica, Arial, 'Liberation Sans', sans-serif" font-size="7" fill="#6E7883" font-weight="400" text-anchor="middle">0</text><line x1="430.33" y1="260.00" x2="430.33" y2="264.00" stroke="#C9D0D8" stroke-width="1"/><text x="430.33" y="273.00" font-family="-apple-system, 'Helvetica Neue', Helvetica, Arial, 'Liberation Sans', sans-serif" font-size="7" fill="#6E7883" font-weight="400" text-anchor="middle">0.5</text><line x1="504.00" y1="260.00" x2="504.00" y2="264.00" stroke="#C9D0D8" stroke-width="1"/><text x="504.00" y="273.00" font-family="-apple-system, 'Helvetica Neue', Helvetica, Arial, 'Liberation Sans', sans-serif" font-size="7" fill="#6E7883" font-weight="400" text-anchor="middle">1</text><text x="356.67" y="287.00" font-family="-apple-system, 'Helvetica Neue', Helvetica, Arial, 'Liberation Sans', sans-serif" font-size="8" fill="#1B2129" font-weight="400" text-anchor="start">ошибка калибровки −0.0566</text><text x="356.67" y="297.00" font-family="-apple-system, 'Helvetica Neue', Helvetica, Arial, 'Liberation Sans', sans-serif" font-size="7" fill="#6E7883" font-weight="400" text-anchor="start">calibration error −0.0566</text><text x="356.67" y="310.00" font-family="-apple-system, 'Helvetica Neue', Helvetica, Arial, 'Liberation Sans', sans-serif" font-size="8" fill="#1B2129" font-weight="400" text-anchor="start">разброс 0.2763 → 0.2121</text><text x="356.67" y="320.00" font-family="-apple-system, 'Helvetica Neue', Helvetica, Arial, 'Liberation Sans', sans-serif" font-size="7" fill="#6E7883" font-weight="400" text-anchor="start">spread 0.2763 → 0.2121</text><text x="25.00" y="262.00" font-family="-apple-system, 'Helvetica Neue', Helvetica, Arial, 'Liberation Sans', sans-serif" font-size="8" fill="#6E7883" font-weight="400" text-anchor="end">0</text><text x="25.00" y="116.00" font-family="-apple-system, 'Helvetica Neue', Helvetica, Arial, 'Liberation Sans', sans-serif" font-size="8" fill="#6E7883" font-weight="400" text-anchor="end">1</text><text x="0.00" y="84.00" font-family="-apple-system, 'Helvetica Neue', Helvetica, Arial, 'Liberation Sans', sans-serif" font-size="8" fill="#6E7883" font-weight="400" text-anchor="start">доля верных ответов / correct rate</text><text x="0.00" y="342.00" font-family="-apple-system, 'Helvetica Neue', Helvetica, Arial, 'Liberation Sans', sans-serif" font-size="8" fill="#6E7883" font-weight="400" text-anchor="start">предсказанная вероятность / predicted probability</text><circle cx="4.00" cy="360.00" r="3" fill="#6E7883" stroke="#FFFFFF" stroke-width="1.2"/><text x="12.00" y="364.00" font-family="-apple-system, 'Helvetica Neue', Helvetica, Arial, 'Liberation Sans', sans-serif" font-size="8" fill="#1B2129" font-weight="400" text-anchor="start">лучшая одиночная модель / best single model</text><circle cx="252.00" cy="360.00" r="3" fill="#A8403A" stroke="#FFFFFF" stroke-width="1.2"/><text x="260.00" y="364.00" font-family="-apple-system, 'Helvetica Neue', Helvetica, Arial, 'Liberation Sans', sans-serif" font-size="8" fill="#1B2129" font-weight="400" text-anchor="start">усреднение без настройки / averaging</text></svg>